<svg width="32" height="32" viewBox="0 0 32 32" fill="none" xmlns="http://www.w3.org/2000/svg">
<path d="M22.0877 2.74121H8.9244C7.23515 2.74121 5.83276 4.11173 5.83276 5.80097V26.9006C5.83276 28.5898 7.20328 29.9603 8.9244 29.9603H22.0877C23.777 29.9603 25.1794 28.5898 25.1794 26.9006V5.80097C25.1794 4.11173 23.8089 2.74121 22.0877 2.74121ZM24.2232 26.9006C24.2232 28.0799 23.267 29.0042 22.0877 29.0042H8.9244C7.74511 29.0042 6.78894 28.048 6.78894 26.9006V5.80097C6.78894 4.62169 7.74511 3.69739 8.9244 3.69739H22.0877C23.267 3.69739 24.2232 4.65356 24.2232 5.80097V26.9006Z" fill="black"/>
<path d="M19.4104 5.76904H11.5379C11.2829 5.76904 11.0598 5.99215 11.0598 6.24713C11.0598 6.50211 11.2829 6.72522 11.5379 6.72522H19.4104C19.6654 6.72522 19.8885 6.50211 19.8885 6.24713C19.8885 5.99215 19.6654 5.76904 19.4104 5.76904Z" fill="black"/>
<path d="M15.4901 24.0322C14.5977 24.0322 13.8965 24.7653 13.8965 25.6259C13.8965 26.0402 14.0558 26.4545 14.3746 26.7414C14.6614 27.0282 15.0758 27.1876 15.4901 27.1876C16.3825 27.1876 17.0837 26.4545 17.0837 25.594C17.0837 24.7334 16.3825 24.0322 15.4901 24.0322ZM15.522 26.2633C15.3626 26.2633 15.2033 26.1996 15.0758 26.0721C14.9483 25.9446 14.8845 25.7852 14.8845 25.6259C14.8845 25.2753 15.1714 24.9884 15.522 24.9884C15.8726 24.9884 16.1594 25.2753 16.1594 25.6259C16.1594 25.9764 15.8726 26.2633 15.522 26.2633Z" fill="black"/>
</svg>
