<svg width="40" height="40" viewBox="0 0 40 40" fill="none" xmlns="http://www.w3.org/2000/svg">
<path d="M0 3C0 1.34315 1.34315 0 3 0H37C38.6569 0 40 1.34315 40 3V37C40 38.6569 38.6569 40 37 40H3C1.34315 40 0 38.6569 0 37V3Z" fill="#0688D2"/>
<path d="M27.8688 12.6811C27.675 12.5183 27.4406 12.4113 27.1906 12.3717C26.9407 12.3321 26.6846 12.3612 26.45 12.4561L12.1313 18.1873C11.9225 18.274 11.7442 18.4206 11.6187 18.6086C11.4932 18.7966 11.4263 19.0175 11.4263 19.2436C11.4263 19.4696 11.4932 19.6905 11.6187 19.8785C11.7442 20.0665 11.9225 20.2131 12.1313 20.2998L13.0563 20.6811C13.2088 20.7456 13.3807 20.7469 13.5342 20.6848C13.6877 20.6227 13.8103 20.5022 13.875 20.3498C13.9068 20.2739 13.9232 20.1925 13.9235 20.1102C13.9237 20.0279 13.9077 19.9464 13.8763 19.8703C13.8449 19.7943 13.7989 19.7251 13.7407 19.6669C13.6826 19.6087 13.6135 19.5625 13.5375 19.5311L12.85 19.2498L26.9188 13.6248C26.9404 13.6115 26.9653 13.6045 26.9906 13.6045C27.016 13.6045 27.0409 13.6115 27.0625 13.6248C27.0829 13.6421 27.0983 13.6646 27.1071 13.6899C27.1159 13.7151 27.1178 13.7423 27.1125 13.7686L24.5438 25.7561C24.5353 25.7987 24.5159 25.8385 24.4874 25.8714C24.4589 25.9043 24.4223 25.9291 24.3813 25.9436C24.341 25.9595 24.2971 25.9645 24.2543 25.9579C24.2115 25.9513 24.1711 25.9334 24.1375 25.9061L19.1375 22.0061L24.0313 17.0623C24.1358 16.9538 24.1977 16.8113 24.2054 16.6608C24.2132 16.5104 24.1664 16.3622 24.0736 16.2435C23.9808 16.1249 23.8483 16.0437 23.7004 16.015C23.5525 15.9863 23.3992 16.012 23.2688 16.0873L16.0938 20.3373C16.0141 20.3733 15.9428 20.4257 15.8846 20.4909C15.8264 20.5562 15.7826 20.633 15.7559 20.7163C15.7293 20.7996 15.7204 20.8875 15.7298 20.9745C15.7393 21.0614 15.7669 21.1454 15.8109 21.221C15.8548 21.2966 15.9141 21.3621 15.985 21.4134C16.0559 21.4646 16.1367 21.5004 16.2223 21.5184C16.3079 21.5364 16.3963 21.5363 16.4818 21.518C16.5673 21.4998 16.648 21.4637 16.7188 21.4123L19.7375 19.6311L18.2688 21.1248C18.1344 21.251 18.0296 21.4055 17.962 21.577C17.8943 21.7485 17.8654 21.9328 17.8773 22.1168C17.8893 22.3008 17.9418 22.4798 18.0311 22.6411C18.1203 22.8024 18.2442 22.942 18.3938 23.0498L23.3938 26.8936C23.6569 27.0966 23.9801 27.2066 24.3125 27.2061C24.4895 27.2048 24.665 27.1731 24.8313 27.1123C25.07 27.0266 25.2828 26.881 25.4491 26.6895C25.6155 26.498 25.7298 26.267 25.7813 26.0186L28.3313 14.0436C28.3854 13.7959 28.3709 13.5381 28.2894 13.298C28.2079 13.0579 28.0625 12.8446 27.8688 12.6811Z" fill="white"/>
</svg>
