<svg width="40" height="40" viewBox="0 0 40 40" fill="none" xmlns="http://www.w3.org/2000/svg">
<path d="M0 3C0 1.34315 1.34315 0 3 0H37C38.6569 0 40 1.34315 40 3V37C40 38.6569 38.6569 40 37 40H3C1.34315 40 0 38.6569 0 37V3Z" fill="#00B08F"/>
<path d="M26.1289 13.793C24.4922 12.1523 22.3125 11.25 19.9961 11.25C15.2148 11.25 11.3242 15.1406 11.3242 19.9219C11.3242 21.4492 11.7227 22.9414 12.4805 24.2578L11.25 28.75L15.8477 27.543C17.1133 28.2344 18.5391 28.5977 19.9922 28.5977H19.9961C24.7734 28.5977 28.75 24.707 28.75 19.9258C28.75 17.6094 27.7656 15.4336 26.1289 13.793ZM19.9961 27.1367C18.6992 27.1367 17.4297 26.7891 16.3242 26.1328L16.0625 25.9766L13.3359 26.6914L14.0625 24.0312L13.8906 23.7578C13.168 22.6094 12.7891 21.2852 12.7891 19.9219C12.7891 15.9492 16.0234 12.7148 20 12.7148C21.9258 12.7148 23.7344 13.4648 25.0938 14.8281C26.4531 16.1914 27.2891 18 27.2852 19.9258C27.2852 23.9023 23.9688 27.1367 19.9961 27.1367ZM23.9492 21.7383C23.7344 21.6289 22.668 21.1055 22.4688 21.0352C22.2695 20.9609 22.125 20.9258 21.9805 21.1445C21.8359 21.3633 21.4219 21.8477 21.293 21.9961C21.168 22.1406 21.0391 22.1602 20.8242 22.0508C19.5508 21.4141 18.7148 20.9141 17.875 19.4727C17.6523 19.0898 18.0977 19.1172 18.5117 18.2891C18.582 18.1445 18.5469 18.0195 18.4922 17.9102C18.4375 17.8008 18.0039 16.7344 17.8242 16.3008C17.6484 15.8789 17.4688 15.9375 17.3359 15.9297C17.2109 15.9219 17.0664 15.9219 16.9219 15.9219C16.7773 15.9219 16.543 15.9766 16.3438 16.1914C16.1445 16.4102 15.5859 16.9336 15.5859 18C15.5859 19.0664 16.3633 20.0977 16.4688 20.2422C16.5781 20.3867 17.9961 22.5742 20.1719 23.5156C21.5469 24.1094 22.0859 24.1602 22.7734 24.0586C23.1914 23.9961 24.0547 23.5352 24.2344 23.0273C24.4141 22.5195 24.4141 22.0859 24.3594 21.9961C24.3086 21.8984 24.1641 21.8438 23.9492 21.7383Z" fill="white"/>
</svg>
